<svg width="29" height="26" viewBox="0 0 29 26" fill="none" xmlns="http://www.w3.org/2000/svg">
<path d="M23.8438 8.41851C23.5352 8.31191 23.2239 8.21317 22.9103 8.12236C22.963 7.90569 23.0115 7.69165 23.0545 7.48137C23.7612 4.02827 23.2992 1.24638 21.7213 0.330454C20.2085 -0.547616 17.7343 0.367971 15.2355 2.5571C14.9893 2.77324 14.7485 2.9956 14.5134 3.22398C14.356 3.07212 14.1958 2.9232 14.0329 2.7773C11.4141 0.436621 8.78915 -0.549897 7.21296 0.368656C5.70145 1.24946 5.25387 3.86463 5.89006 7.13721C5.95335 7.46132 6.02482 7.78377 6.10439 8.10423C5.73282 8.21051 5.37429 8.32363 5.03116 8.44405C1.96078 9.52168 0 11.2104 0 12.9621C0 14.7713 2.10499 16.5859 5.30292 17.6863C5.56218 17.7751 5.82361 17.8574 6.08694 17.9331C6.00142 18.2783 5.92549 18.6258 5.85925 18.9752C5.25274 22.191 5.72637 24.7443 7.2338 25.6196C8.79074 26.5234 11.4039 25.5945 13.9483 23.3554C14.1546 23.1734 14.3564 22.9862 14.5535 22.794C14.8081 23.0413 15.0695 23.2814 15.3374 23.514C17.8021 25.649 20.2363 26.5111 21.7423 25.6335C23.2978 24.727 23.8033 21.984 23.147 18.6468C23.0953 18.3853 23.0373 18.1252 22.9731 17.8665C23.1566 17.8118 23.3367 17.7555 23.5123 17.6969C26.8369 16.5881 29 14.7955 29 12.9621C29 11.204 26.9759 9.50389 23.8438 8.41851ZM23.1227 16.5132C22.9641 16.566 22.8015 16.6169 22.6356 16.6665C22.2686 15.4969 21.7733 14.2532 21.1672 12.9682C21.7456 11.7138 22.2218 10.486 22.5785 9.32395C22.8752 9.41038 23.1631 9.5015 23.4406 9.59763C26.1242 10.5277 27.7612 11.9026 27.7612 12.9621C27.7612 14.0906 25.9933 15.5556 23.1227 16.5132ZM21.9317 18.889C22.2219 20.3646 22.2633 21.6988 22.071 22.7419C21.8984 23.6791 21.5511 24.3039 21.1215 24.5542C20.2077 25.0868 18.2532 24.3946 16.1454 22.5687C15.8962 22.3524 15.6531 22.1292 15.4162 21.8993C16.2334 20.9997 17.0501 19.9538 17.8471 18.7923C19.2491 18.6671 20.5736 18.4623 21.7747 18.1828C21.8326 18.4169 21.8849 18.6524 21.9317 18.889ZM9.88673 24.4622C8.99385 24.7796 8.28267 24.7887 7.85277 24.5392C6.93802 24.0081 6.55774 21.9579 7.07645 19.2078C7.13811 18.8829 7.20871 18.5597 7.28818 18.2386C8.47604 18.5032 9.7909 18.6934 11.1962 18.8081C11.9986 19.9447 12.8388 20.9894 13.6856 21.9042C13.5057 22.0795 13.3215 22.2503 13.1331 22.4164C12.0079 23.4065 10.8804 24.1089 9.88673 24.4622ZM5.70371 16.5062C4.28962 16.0196 3.1218 15.3873 2.32136 14.6973C1.60202 14.0773 1.23896 13.4616 1.23896 12.9621C1.23896 11.8991 2.81323 10.5432 5.43897 9.62169C5.75763 9.50994 6.09113 9.40445 6.43721 9.30547C6.80016 10.4937 7.27617 11.7361 7.85062 12.9925C7.26869 14.2674 6.78589 15.5296 6.41942 16.7319C6.17905 16.6626 5.94041 16.5873 5.70371 16.5062ZM7.10591 6.89762C6.56091 4.09384 6.92284 1.97883 7.83374 1.448C8.80388 0.882612 10.9492 1.68873 13.2104 3.70988C13.3579 3.84198 13.5029 3.97675 13.6455 4.11414C12.8029 5.02494 11.9704 6.06186 11.1751 7.19172C9.81118 7.31898 8.50561 7.52333 7.30528 7.79713C7.23133 7.49906 7.16485 7.19906 7.10591 6.89762ZM19.6152 10.0071C19.3317 9.51415 19.0377 9.02737 18.7333 8.54714C19.6586 8.66494 20.5451 8.82128 21.3776 9.0124C21.1277 9.81886 20.8162 10.6619 20.4495 11.5263C20.1815 11.0144 19.9033 10.5079 19.6152 10.0071ZM14.5139 5.00544C15.0853 5.62864 15.6576 6.32437 16.2205 7.07928C15.0786 7.02499 13.9349 7.02476 12.793 7.07859C13.3564 6.33064 13.9336 5.63582 14.5139 5.00544ZM9.37991 10.0157C9.09539 10.5124 8.82242 11.0157 8.56123 11.5253C8.20054 10.664 7.89185 9.81703 7.6398 8.99917C8.46721 8.81284 9.34956 8.66049 10.2689 8.54486C9.96121 9.02802 9.66478 9.51851 9.37991 10.0157ZM10.2953 17.4681C9.34548 17.3614 8.44987 17.2169 7.6227 17.0356C7.87871 16.2031 8.1942 15.3382 8.5627 14.4584C8.82493 14.9683 9.09903 15.4719 9.38479 15.9689C9.67864 16.4798 9.98291 16.9801 10.2953 17.4681ZM14.5481 21.0066C13.9609 20.3689 13.3752 19.6634 12.8033 18.9046C13.3586 18.9265 13.9246 18.9377 14.5 18.9377C15.0911 18.9377 15.6754 18.9243 16.2505 18.8986C15.6858 19.671 15.1157 20.3776 14.5481 21.0066ZM20.4612 14.4134C20.8488 15.3029 21.1756 16.1633 21.435 16.9815C20.5942 17.1747 19.6864 17.3302 18.7298 17.4458C19.0363 16.9566 19.3331 16.4614 19.6201 15.9603C19.9118 15.451 20.1923 14.9353 20.4612 14.4134ZM18.547 15.3372C18.1077 16.1054 17.6437 16.859 17.1558 17.5968C16.2719 17.6599 15.3861 17.6912 14.5 17.6907C13.5975 17.6907 12.7197 17.6624 11.8744 17.6072C11.3737 16.8711 10.9009 16.1162 10.4569 15.3441C10.015 14.5761 9.60235 13.7914 9.21962 12.9919C9.60137 12.1921 10.0129 11.4071 10.4533 10.6385L10.4531 10.6387C10.8934 9.86986 11.3624 9.11817 11.8593 8.38521C12.7217 8.31952 13.6061 8.28531 14.4999 8.28531C15.3978 8.28531 16.2834 8.31987 17.1456 8.38601C17.6374 9.11787 18.1035 9.86697 18.5429 10.6319C18.9847 11.3988 19.4017 12.18 19.7931 12.9742C19.4057 13.7765 18.9901 14.5647 18.547 15.3372ZM21.1026 1.41082C22.0736 1.97461 22.4513 4.24813 21.8412 7.22958C21.8022 7.41979 21.7585 7.61353 21.7109 7.81001C20.5076 7.5304 19.2012 7.32252 17.8333 7.19331C17.0365 6.05102 16.2108 5.01251 15.3819 4.11345C15.5991 3.90266 15.8215 3.69733 16.0489 3.49766C18.1899 1.62213 20.1909 0.881585 21.1026 1.41082ZM14.5 10.3553C15.9302 10.3553 17.0896 11.5224 17.0896 12.9621C17.0896 14.4018 15.9302 15.569 14.5 15.569C13.0698 15.569 11.9104 14.4018 11.9104 12.9621C11.9104 11.5224 13.0698 10.3553 14.5 10.3553Z" fill="#00D8FF"/>
</svg>
