<svg width="23" height="24" viewBox="0 0 23 24" fill="none" xmlns="http://www.w3.org/2000/svg">
<path d="M12.2522 17.5809C12.3527 17.6854 12.4324 17.8096 12.4868 17.9464C12.5413 18.0831 12.5693 18.2297 12.5693 18.3778C12.5693 18.5259 12.5413 18.6725 12.4868 18.8092C12.4324 18.946 12.3527 19.0701 12.2522 19.1747L11.7185 19.7315C10.7072 20.7868 9.33568 21.3796 7.90554 21.3796C6.47539 21.3796 5.10383 20.7868 4.09257 19.7315C3.0813 18.6763 2.51318 17.2451 2.51318 15.7528C2.51318 14.2605 3.0813 12.8293 4.09257 11.774L6.2596 9.51373C7.23124 8.49733 8.53855 7.90707 9.91374 7.86384C11.2889 7.82061 12.6279 8.3277 13.6564 9.28123C13.7626 9.37972 13.8492 9.49907 13.9112 9.63247C13.9731 9.76586 14.0093 9.91069 14.0177 10.0587C14.026 10.2067 14.0063 10.3549 13.9598 10.495C13.9132 10.6351 13.8407 10.7642 13.7463 10.875C13.6519 10.9858 13.5375 11.0761 13.4097 11.1408C13.2818 11.2055 13.143 11.2432 13.0012 11.2519C12.8594 11.2606 12.7173 11.2401 12.5831 11.1915C12.4489 11.1429 12.3251 11.0672 12.2189 10.9687C11.6022 10.3972 10.7994 10.0931 9.97492 10.1187C9.1504 10.1443 8.36643 10.4977 7.78335 11.1065L5.61811 13.364C5.01145 13.9971 4.67063 14.8557 4.67063 15.7509C4.67063 16.6462 5.01145 17.5048 5.61811 18.1378C6.22478 18.7708 7.04759 19.1265 7.90554 19.1265C8.76348 19.1265 9.58629 18.7708 10.193 18.1378L10.7266 17.5809C10.8268 17.4763 10.9457 17.3933 11.0765 17.3367C11.2074 17.2801 11.3477 17.251 11.4894 17.251C11.6311 17.251 11.7714 17.2801 11.9023 17.3367C12.0331 17.3933 12.152 17.4763 12.2522 17.5809ZM18.9078 4.26842C17.8957 3.21481 16.5245 2.62311 15.0948 2.62311C13.6652 2.62311 12.294 3.21481 11.2819 4.26842L10.7482 4.82529C10.5457 5.03664 10.4319 5.32328 10.4319 5.62217C10.4319 5.92105 10.5457 6.2077 10.7482 6.41904C10.9507 6.63039 11.2254 6.74912 11.5119 6.74912C11.7983 6.74912 12.073 6.63039 12.2755 6.41904L12.8092 5.86217C13.4159 5.22913 14.2387 4.87349 15.0966 4.87349C15.9546 4.87349 16.7774 5.22913 17.3841 5.86217C17.9907 6.49521 18.3315 7.35379 18.3315 8.24904C18.3315 9.14429 17.9907 10.0029 17.3841 10.6359L15.2179 12.8972C14.6343 13.5058 13.8499 13.8586 13.0252 13.8835C12.2005 13.9085 11.3978 13.6036 10.7814 13.0312C10.6752 12.9327 10.5515 12.857 10.4173 12.8084C10.2831 12.7599 10.141 12.7393 9.99915 12.748C9.85733 12.7567 9.71853 12.7945 9.59069 12.8592C9.46286 12.9239 9.34848 13.0142 9.25409 13.125C9.1597 13.2358 9.08715 13.3649 9.04059 13.505C8.99402 13.645 8.97435 13.7933 8.98269 13.9413C8.99103 14.0893 9.02723 14.2341 9.08921 14.3675C9.15119 14.5009 9.23775 14.6202 9.34393 14.7187C10.3717 15.672 11.7098 16.1794 13.0844 16.1371C14.4589 16.0947 15.766 15.5058 16.7381 14.4909L18.9051 12.2306C19.916 11.1748 20.484 9.7435 20.4846 8.25103C20.4851 6.75856 19.918 5.32687 18.9078 4.27029V4.26842Z" fill="black"/>
</svg>
