<svg width="29" height="22" viewBox="0 0 29 22" fill="none" xmlns="http://www.w3.org/2000/svg">
<g clip-path="url(#clip0_137_1633)">
<path d="M24.5657 1.83484C22.6639 0.966421 20.6519 0.349369 18.5829 0C18.3252 0.454704 18.0241 1.06628 17.8164 1.55282C15.5857 1.22548 13.3754 1.22548 11.1857 1.55282C10.9782 1.06639 10.6703 0.454704 10.4102 0C8.33918 0.34953 6.32546 0.968154 4.42272 1.83938C0.636406 7.42329 -0.390035 12.8683 0.123129 18.2363C2.63446 20.0665 5.0682 21.1784 7.46092 21.9059C8.05557 21.1079 8.58123 20.2629 9.03247 19.3799C8.17338 19.0607 7.34518 18.6674 6.55773 18.2045C6.76496 18.0546 6.9673 17.8984 7.16446 17.7361C11.9361 19.9142 17.1208 19.9142 21.8355 17.7361C22.0335 17.8973 22.2358 18.0535 22.4421 18.2045C21.6534 18.6686 20.8237 19.0627 19.9629 19.3822C20.4167 20.2689 20.9414 21.1146 21.5344 21.9081C23.9294 21.1807 26.3654 20.0689 28.8767 18.2363C29.4789 12.0135 27.8481 6.61846 24.5657 1.83484ZM9.68259 14.9351C8.25015 14.9351 7.07543 13.6301 7.07543 12.0409C7.07543 10.4517 8.22512 9.14437 9.68259 9.14437C11.1402 9.14437 12.3148 10.4493 12.2898 12.0409C12.292 13.6301 11.1402 14.9351 9.68259 14.9351ZM19.3173 14.9351C17.8848 14.9351 16.7102 13.6301 16.7102 12.0409C16.7102 10.4517 17.8598 9.14437 19.3173 9.14437C20.7749 9.14437 21.9495 10.4493 21.9244 12.0409C21.9244 13.6301 20.7749 14.9351 19.3173 14.9351Z" fill="#EFEFF1"/>
</g>
<defs>
<clipPath id="clip0_137_1633">
<rect width="29" height="22" fill="white"/>
</clipPath>
</defs>
</svg>
