<svg width="23" height="33" viewBox="0 0 23 33" fill="none" xmlns="http://www.w3.org/2000/svg">
<g clip-path="url(#clip0_137_1606)">
<path d="M11.486 32.9165L2.12594 30.2726L0.0400391 6.46875H22.9601L20.872 30.269L11.486 32.9165Z" fill="#264DE4"/>
<path d="M19.0843 28.7535L20.8686 8.41504H11.5V30.8928L19.0843 28.7535Z" fill="#2965F1"/>
<path d="M4.82171 17.244L5.07885 20.1634H11.4999V17.244H4.82171ZM4.30493 11.335L4.56575 14.2544H11.4999V11.335H4.30493ZM11.4999 24.8261L11.4873 24.8295L8.29175 23.9516L8.08744 21.6232H5.20705L5.60901 26.2072L11.4867 27.8672L11.4999 27.8636V24.8261Z" fill="#EBEBEB"/>
<path d="M5.43408 0H8.90924V1.47869H6.88739V2.95739H8.90942V4.43599H5.43408V0ZM9.60436 0H13.0796V1.28581H11.0577V1.54296H13.0796V4.50034H9.60445V3.15008H11.6264V2.89294H9.60427L9.60436 0ZM13.7747 0H17.25V1.28581H15.228V1.54296H17.25V4.50034H13.7747V3.15008H15.7967V2.89294H13.7748V0H13.7747Z" fill="white"/>
<path d="M18.1598 17.244L18.6778 11.335H11.4901V14.2544H15.5332L15.2721 17.244H11.4901V20.1634H15.0234L14.6902 23.9497L11.49 24.8286V27.8659L17.3723 26.2072L17.4155 25.7139L18.0898 18.0279L18.1598 17.244Z" fill="white"/>
</g>
<defs>
<clipPath id="clip0_137_1606">
<rect width="23" height="33" fill="white"/>
</clipPath>
</defs>
</svg>
