<svg width="23" height="33" viewBox="0 0 23 33" fill="none" xmlns="http://www.w3.org/2000/svg">
<g clip-path="url(#clip0_137_1600)">
<path d="M22.9601 6.46875L20.872 30.269L11.486 32.9165L2.12594 30.2726L0.0400391 6.46875H22.9601Z" fill="#E44D26"/>
<path d="M11.5 30.8928L19.0843 28.7535L20.8686 8.41504H11.5V30.8928Z" fill="#F16529"/>
<path d="M7.44075 14.2544H11.4999V11.335H4.30493L4.37357 12.1182L5.07885 20.1634H11.4999V17.244H7.703L7.44075 14.2544ZM8.08744 21.6232H5.20705L5.60901 26.2072L11.4867 27.8672L11.4999 27.8636V24.8261L11.4873 24.8295L8.29175 23.9516L8.08744 21.6232Z" fill="#EBEBEB"/>
<path d="M2.17236 0H3.63053V1.4658H4.96444V0H6.42269V4.43882H4.96453V2.95245H3.63062V4.43882H2.17245L2.17236 0ZM8.34014 1.47202H7.05663V0H11.0829V1.47202H9.79857V4.43882H8.34041V1.47202H8.34014ZM11.7219 0H13.2423L14.1776 1.55968L15.1119 0H16.633V4.43882H15.1807V2.2387L14.1776 3.81694H14.1524L13.1486 2.2387V4.43882H11.7219V0ZM17.3587 0H18.8173V2.97165H20.8679V4.43882H17.3586V0H17.3587Z" fill="white"/>
<path d="M11.4901 20.1634H15.0234L14.6902 23.9497L11.49 24.8286V27.8659L17.3723 26.2072L17.4155 25.7139L18.0898 18.0279L18.1598 17.244H11.4901V20.1634ZM11.4901 14.2473V14.2544H18.4209L18.4784 13.5982L18.6092 12.1182L18.6778 11.335H11.4901V14.2473Z" fill="white"/>
</g>
<defs>
<clipPath id="clip0_137_1600">
<rect width="23" height="33" fill="white"/>
</clipPath>
</defs>
</svg>
