<svg width="33" height="33" viewBox="0 0 33 33" fill="none" xmlns="http://www.w3.org/2000/svg">
<path d="M16.5 2.75C14.6943 2.75 12.9063 3.10565 11.2381 3.79666C9.56988 4.48766 8.05409 5.50048 6.77728 6.77728C4.19866 9.35591 2.75 12.8533 2.75 16.5C2.75 22.5775 6.69625 27.7337 12.155 29.5625C12.8425 29.6725 13.0625 29.2463 13.0625 28.875V26.5512C9.25375 27.3762 8.4425 24.7087 8.4425 24.7087C7.81 23.1137 6.91625 22.6875 6.91625 22.6875C5.665 21.835 7.0125 21.8625 7.0125 21.8625C8.3875 21.9587 9.11625 23.2788 9.11625 23.2788C10.3125 25.3687 12.3337 24.75 13.1175 24.42C13.2413 23.5263 13.5988 22.9212 13.9838 22.5775C10.9312 22.2337 7.7275 21.0513 7.7275 15.8125C7.7275 14.2863 8.25 13.0625 9.14375 12.0863C9.00625 11.7425 8.525 10.3125 9.28125 8.45625C9.28125 8.45625 10.4363 8.085 13.0625 9.85875C14.1488 9.55625 15.3313 9.405 16.5 9.405C17.6687 9.405 18.8512 9.55625 19.9375 9.85875C22.5637 8.085 23.7188 8.45625 23.7188 8.45625C24.475 10.3125 23.9937 11.7425 23.8563 12.0863C24.75 13.0625 25.2725 14.2863 25.2725 15.8125C25.2725 21.065 22.055 22.22 18.9888 22.5637C19.4838 22.99 19.9375 23.8288 19.9375 25.1075V28.875C19.9375 29.2463 20.1575 29.6863 20.8587 29.5625C26.3175 27.72 30.25 22.5775 30.25 16.5C30.25 14.6943 29.8943 12.9063 29.2033 11.2381C28.5123 9.56988 27.4995 8.05409 26.2227 6.77728C24.9459 5.50048 23.4301 4.48766 21.7619 3.79666C20.0937 3.10565 18.3057 2.75 16.5 2.75Z" fill="#EFEFF1"/>
</svg>
