<svg width="20" height="20" viewBox="0 0 20 20" fill="none" xmlns="http://www.w3.org/2000/svg">
<path d="M2.5 0C1.115 0 0 1.115 0 2.5V17.5C0 18.885 1.115 20 2.5 20H17.5C18.885 20 20 18.885 20 17.5V2.5C20 1.115 18.885 0 17.5 0H2.5ZM8.23583 5.20833C8.76083 5.20833 9.07333 5.45833 9.17333 5.95833L10.3925 12.8775C10.78 12.365 11.0975 11.9333 11.3475 11.5833C11.7617 10.9864 12.1196 10.3523 12.4167 9.68917C12.7542 8.97667 12.9233 8.33917 12.9233 7.77667C12.9233 7.43917 12.8292 7.17083 12.6417 6.97083C12.4667 6.75833 12.135 6.49 11.6475 6.165C12.1475 5.5275 12.7725 5.20833 13.5225 5.20833C13.9225 5.20833 14.2542 5.3275 14.5167 5.565C14.7917 5.8025 14.9283 6.15167 14.9283 6.615C14.9283 7.39 14.6033 8.35917 13.9533 9.52167C13.3158 10.6717 12.0858 12.4025 10.2608 14.715L8.405 14.845L6.97917 6.82167H5.10417V6.03333C5.60417 5.87083 6.19167 5.695 6.86667 5.50833C7.54167 5.30833 7.99833 5.20833 8.23583 5.20833Z" fill="black"/>
</svg>
