<svg width="19" height="16" viewBox="0 0 19 16" fill="none" xmlns="http://www.w3.org/2000/svg">
<path d="M9.54196 12.4813H4.22681L3.14529 15.7944C3.13058 15.8549 3.09494 15.9083 3.04453 15.9456C2.99412 15.9829 2.9321 16.0017 2.86915 15.9987H0.177012C0.0236002 15.9987 -0.0301273 15.9155 0.0159632 15.749L4.61791 2.67817C4.66387 2.54207 4.70996 2.38707 4.75592 2.21304C4.81621 1.91018 4.84703 1.60257 4.84796 1.29403C4.84483 1.27244 4.84684 1.25044 4.85382 1.22975C4.86081 1.20907 4.87258 1.19027 4.8882 1.17485C4.90383 1.15942 4.92288 1.1478 4.94385 1.14089C4.96482 1.13399 4.98713 1.13199 5.00901 1.13506H8.66758C8.77477 1.13506 8.83613 1.17299 8.85168 1.2487L14.0748 15.7717C14.1209 15.9231 14.0748 15.9989 13.9368 15.9987H10.9454C10.8941 16.0043 10.8424 15.9913 10.8001 15.9621C10.7577 15.9329 10.7276 15.8894 10.7154 15.8399L9.54196 12.4813ZM5.0551 9.62214H8.69063L8.63877 9.45341L8.55557 9.18622L8.49622 8.99859L8.40149 8.70313L8.20011 8.08115L8.02299 7.52974L7.56302 6.0934C7.44853 5.73635 7.33866 5.37787 7.23342 5.01807L7.14927 4.72604L7.05093 4.38077L6.90087 3.84561L6.87273 3.74479H6.84982C6.73469 4.28947 6.59449 4.82872 6.42965 5.36083L6.08825 6.44383L5.90041 7.04215L5.71082 7.64787C5.67652 7.75728 5.64249 7.8655 5.60832 7.9724L5.5065 8.28927L5.4052 8.59874L5.30445 8.90054L5.20423 9.19481C5.171 9.29167 5.13777 9.3872 5.10468 9.48155L5.0551 9.62214ZM17.1808 3.5405C16.9461 3.54979 16.7121 3.51013 16.494 3.42411C16.276 3.33808 16.0788 3.20763 15.9153 3.04128C15.7523 2.86772 15.6257 2.66409 15.5428 2.44211C15.4598 2.22012 15.4222 1.98416 15.432 1.74779C15.4237 1.51379 15.4655 1.28068 15.5547 1.06369C15.6439 0.846702 15.7785 0.65071 15.9497 0.488513C16.28 0.175826 16.7199 0.000841225 17.1777 0L17.2268 0.000528765C17.779 0.000528765 18.2125 0.163058 18.5269 0.488381C18.6856 0.657411 18.809 0.855654 18.8899 1.07176C18.9709 1.28787 19.0078 1.51759 18.9986 1.74779C19.0082 1.9851 18.9694 2.22191 18.8844 2.44414C18.7994 2.66636 18.67 2.86948 18.5039 3.04142C18.3362 3.20447 18.137 3.33278 17.9182 3.41879C17.6995 3.5048 17.4654 3.54676 17.23 3.54222L17.1808 3.5405ZM15.5931 15.7717V4.92478C15.5931 4.78867 15.6542 4.72049 15.7772 4.72049H18.6075C18.7301 4.72049 18.7914 4.78854 18.7916 4.92478V15.7717C18.7916 15.9231 18.7302 15.9989 18.6075 15.9987H15.8002C15.6695 15.9987 15.6006 15.9308 15.5938 15.795L15.5931 15.7717Z" fill="#FF9A00"/>
</svg>
