<svg width="32" height="32" viewBox="0 0 32 32" fill="none" xmlns="http://www.w3.org/2000/svg">
<path d="M8 4C6.93913 4 5.92172 4.42143 5.17157 5.17157C4.42143 5.92172 4 6.93913 4 8V24C4 25.0609 4.42143 26.0783 5.17157 26.8284C5.92172 27.5786 6.93913 28 8 28H24C25.0609 28 26.0783 27.5786 26.8284 26.8284C27.5786 26.0783 28 25.0609 28 24V8C28 6.93913 27.5786 5.92172 26.8284 5.17157C26.0783 4.42143 25.0609 4 24 4H8ZM17.7787 21.4067C18.7387 22.18 19.696 22.56 20.6533 22.5507C21.24 22.5507 21.6907 22.444 22.0027 22.228C22.1483 22.1334 22.2669 22.0026 22.3466 21.8482C22.4263 21.6939 22.4645 21.5215 22.4573 21.348C22.4593 21.1587 22.4197 20.9713 22.3414 20.799C22.263 20.6267 22.1479 20.4737 22.004 20.3507C21.6907 20.0773 21.0987 19.804 20.228 19.5293C19.1827 19.2267 18.3747 18.836 17.808 18.356C17.2507 17.876 16.968 17.2067 16.9573 16.3467C16.9573 15.5347 17.3093 14.856 18.0133 14.308C18.6987 13.7613 19.5733 13.4867 20.64 13.4867C22.1253 13.4867 23.3187 13.848 24.2173 14.572L23.1907 16.1707C22.821 15.8831 22.3969 15.6736 21.944 15.5547C21.537 15.4185 21.1118 15.3444 20.6827 15.3347C20.176 15.3347 19.7693 15.428 19.4653 15.6133C19.1627 15.8 19.012 16.044 19.012 16.3467C19.012 16.68 19.1973 16.9627 19.568 17.1973C19.9413 17.4227 20.576 17.672 21.4747 17.9453C22.56 18.268 23.3333 18.6987 23.792 19.236C24.252 19.7733 24.4813 20.4587 24.4813 21.2893C24.4813 22.14 24.1547 22.8733 23.4987 23.4893C22.8533 24.096 21.9147 24.4133 20.6827 24.4427C19.0693 24.4427 17.72 23.9587 16.6347 22.9907L17.7787 21.4067ZM10.4053 22.2573C10.7187 22.4533 11.0947 22.5507 11.5347 22.5507C11.9947 22.5507 12.3747 22.4187 12.6787 22.1547C12.9813 21.8813 13.1333 21.4067 13.1333 20.732V13.6627H15.1133V21.1133C15.084 22.2667 14.752 23.0987 14.116 23.6067C13.769 23.9017 13.3644 24.1215 12.928 24.252C12.5238 24.3752 12.1039 24.4394 11.6813 24.4427C10.948 24.4427 10.2973 24.316 9.73067 24.0613C9.124 23.788 8.616 23.304 8.20533 22.6093L9.584 21.48C9.83733 21.8227 10.112 22.0813 10.4053 22.2573Z" fill="#F7DF1E"/>
</svg>
