<svg width="22" height="16" viewBox="0 0 22 16" fill="none" xmlns="http://www.w3.org/2000/svg">
<path d="M0 15.486V0.238566C0 0.127411 0.0491972 0.0715559 0.147449 0.0715559L0.302907 0.0711393L0.568631 0.0683598L0.937898 0.0612744L2.17498 0.0358474L3.50146 0.011949C3.96797 0.00416811 4.43049 0 4.889 0C6.13323 0 7.18111 0.151171 8.03277 0.453373C8.801 0.70583 9.50162 1.12154 10.0836 1.67024C10.577 2.14589 10.9583 2.71987 11.2011 3.35257C11.4309 3.96826 11.5473 4.61843 11.5451 5.27333C11.5451 6.54619 11.242 7.59605 10.6362 8.42304C10.0437 9.22985 9.21718 9.84687 8.26217 10.1954L8.18022 10.2246C7.18297 10.586 6.0786 10.7166 4.8674 10.7248L4.67919 10.7253L4.39988 10.7239L4.25901 10.722L4.10198 10.7184L4.0073 10.7148L3.94981 10.7119L3.80837 10.7069L3.63546 10.7034L3.37517 10.7016L3.31725 10.7014V15.4621C3.32156 15.4913 3.31881 15.521 3.30922 15.549C3.29963 15.5769 3.28346 15.6024 3.26201 15.6232C3.24055 15.6441 3.21439 15.6598 3.1856 15.6691C3.15681 15.6784 3.12619 15.6811 3.09615 15.6769H0.172048C0.0572062 15.6769 0 15.6135 0 15.486ZM3.31739 2.93491V7.90798C3.51341 7.92335 3.70997 7.93132 3.90662 7.93188H4.71723C5.2761 7.93005 5.83173 7.84922 6.36663 7.69192L6.47332 7.65955C6.95995 7.51912 7.39478 7.24576 7.726 6.87201C8.03377 6.51938 8.19323 6.03349 8.20424 5.41422L8.20496 5.34488C8.21783 4.88331 8.09427 4.42786 7.84871 4.03256C7.59063 3.65026 7.21761 3.35447 6.78038 3.18542C6.20945 2.96984 5.59961 2.86843 4.98739 2.88725L4.6759 2.88808L4.4794 2.88975L4.2919 2.89211L4.02733 2.89711L3.83425 2.90239L3.734 2.90601L3.59999 2.91212L3.48587 2.91893L3.4208 2.92393L3.36459 2.92921L3.33985 2.93199L3.31739 2.93491ZM21.0413 7.00373C20.6129 6.78983 20.1584 6.62916 19.6887 6.52549L19.58 6.5027C19.0632 6.38749 18.5356 6.32403 18.0055 6.31332L17.8731 6.31179C17.5624 6.30362 17.252 6.3398 16.9521 6.4192C16.7611 6.46045 16.5914 6.56609 16.473 6.71737C16.393 6.83841 16.3504 6.97922 16.3503 7.12309C16.3548 7.2626 16.4065 7.39678 16.4976 7.50476C16.6279 7.65287 16.7846 7.77698 16.9602 7.87116L17.0134 7.89853C17.3636 8.08171 17.7244 8.24501 18.0941 8.38761C18.9184 8.65569 19.706 9.02028 20.4395 9.47332C20.9393 9.77977 21.3529 10.2021 21.6432 10.7023C21.8871 11.1758 22.0093 11.6998 21.9993 12.2293C22.014 12.9285 21.8083 13.6155 21.4098 14.198C20.9831 14.7892 20.3906 15.2488 19.7027 15.5221C18.9823 15.8297 18.0976 15.9885 17.0488 15.9989L16.9398 15.9995C16.2896 16.0059 15.6402 15.9506 15.0011 15.8344L14.8643 15.8086C14.3262 15.7127 13.8023 15.5524 13.3048 15.3313C13.2548 15.3062 13.2125 15.2687 13.1823 15.2226C13.1521 15.1764 13.135 15.1234 13.1329 15.0687V12.468C13.1299 12.4427 13.1341 12.4172 13.1449 12.3941C13.1557 12.3709 13.1728 12.3511 13.1944 12.3367C13.2154 12.3251 13.2397 12.32 13.2638 12.3222C13.2879 12.3243 13.3108 12.3335 13.3294 12.3486C13.917 12.6852 14.555 12.9308 15.2205 13.0764C15.807 13.2193 16.4088 13.2954 17.0134 13.3032C17.5864 13.3032 18.008 13.2315 18.2783 13.0884C18.4003 13.0341 18.5036 12.9466 18.5755 12.8365C18.6474 12.7264 18.685 12.5984 18.6836 12.468C18.6836 12.2615 18.5607 12.0625 18.3152 11.8715C18.2122 11.7915 18.0645 11.7043 17.8723 11.6103L17.7803 11.5664L17.6822 11.5215L17.6307 11.4987L17.5229 11.4523C17.5042 11.4444 17.4854 11.4365 17.4667 11.4287L17.3494 11.3809L17.2883 11.3566L17.1616 11.3072L17.0958 11.2822L16.9595 11.2312L16.8169 11.1794C16.0457 10.9186 15.3145 10.5574 14.6432 10.1056C14.1632 9.78127 13.7679 9.35226 13.489 8.85293C13.2474 8.38275 13.1253 7.86319 13.1329 7.33775C13.1315 6.70642 13.31 6.08703 13.6486 5.54816C14.0347 4.95487 14.589 4.48246 15.2451 4.18818C15.9654 3.83846 16.8659 3.66339 17.9466 3.66311C18.5796 3.65817 19.212 3.70208 19.8379 3.79441C20.291 3.85025 20.7341 3.96668 21.1545 4.14038C21.2221 4.15928 21.2766 4.20777 21.3018 4.27168C21.3185 4.3299 21.3267 4.39006 21.3264 4.45064V6.86062C21.3299 6.91759 21.3018 6.97219 21.2527 7.00373C21.2199 7.0196 21.1837 7.02785 21.147 7.02785C21.1104 7.02785 21.0742 7.0196 21.0413 7.00373Z" fill="#31A8FF"/>
</svg>
