<svg width="26" height="27" viewBox="0 0 26 27" fill="none" xmlns="http://www.w3.org/2000/svg">
<path d="M4.48354 4.73371C5.32604 5.41546 5.64226 5.36371 7.22561 5.25796L22.15 4.36584C22.4662 4.36584 22.2031 4.05084 22.0981 3.99909L19.618 2.21372C19.1437 1.84697 18.5101 1.42622 17.2972 1.53084L2.8471 2.58159C2.32082 2.63334 2.21466 2.89659 2.42472 3.10584L4.48354 4.73371ZM5.37912 8.1987V23.8407C5.37912 24.681 5.80037 24.996 6.75015 24.9432L23.1518 23.9982C24.1016 23.9464 24.2077 23.3682 24.2077 22.6853V7.14796C24.2077 6.46621 23.9446 6.09833 23.363 6.15008L6.22274 7.14796C5.59031 7.20083 5.37912 7.51696 5.37912 8.1987ZM21.5707 9.03683C21.6757 9.50933 21.5707 9.98182 21.0963 10.0358L20.3058 10.1933V21.7403C19.6191 22.1082 18.9867 22.3186 18.4593 22.3186C17.6145 22.3186 17.4034 22.0553 16.7709 21.2689L11.6019 13.1847V21.0057L13.2372 21.3747C13.2372 21.3747 13.2372 22.3197 11.9181 22.3197L8.2793 22.5289C8.17427 22.3197 8.2793 21.7943 8.6486 21.6897L9.59726 21.4276V11.0854L8.28156 10.9797C8.1754 10.5072 8.43967 9.82545 9.17713 9.77258L13.0802 9.51045L18.4604 17.6993V10.4543L17.0883 10.2979C16.9832 9.7197 17.4045 9.30008 17.9319 9.24833L21.5707 9.03683ZM1.63418 1.16409L16.6659 0.0615958C18.5113 -0.0959039 18.9867 0.00872092 20.1466 0.849094L24.9452 4.20834C25.7357 4.78546 26 4.94296 26 5.57296V23.9982C26 25.1524 25.5788 25.8364 24.1027 25.9399L6.64512 26.9907C5.53836 27.0435 5.00982 26.886 4.42933 26.1503L0.895578 21.5828C0.26314 20.7424 0 20.1136 0 19.3778V3.00009C0 2.05622 0.422379 1.26759 1.63418 1.16409Z" fill="#EFEFF1"/>
</svg>
